<?xml version="1.0" encoding="UTF-8" standalone="no"?>
<svg
   xmlns:dc="http://purl.org/dc/elements/1.1/"
   xmlns:cc="http://creativecommons.org/ns#"
   xmlns:rdf="http://www.w3.org/1999/02/22-rdf-syntax-ns#"
   xmlns:svg="http://www.w3.org/2000/svg"
   xmlns="http://www.w3.org/2000/svg"
   xmlns:sodipodi="http://sodipodi.sourceforge.net/DTD/sodipodi-0.dtd"
   xmlns:inkscape="http://www.inkscape.org/namespaces/inkscape"
   width="100"
   height="100"
   version="1.1"
   id="svg15"
   sodipodi:docname="favicon.svg"
   inkscape:version="1.0.2-2 (e86c870879, 2021-01-15)">
  <metadata
     id="metadata21">
    <rdf:RDF>
      <cc:Work
         rdf:about="">
        <dc:format>image/svg+xml</dc:format>
        <dc:type
           rdf:resource="http://purl.org/dc/dcmitype/StillImage" />
      </cc:Work>
    </rdf:RDF>
  </metadata>
  <defs
     id="defs19">
    
   </defs>
  <sodipodi:namedview
     pagecolor="#ffffff"
     bordercolor="#666666"
     borderopacity="1"
     objecttolerance="10"
     gridtolerance="10"
     guidetolerance="10"
     inkscape:pageopacity="0"
     inkscape:pageshadow="2"
     inkscape:window-width="1920"
     inkscape:window-height="1057"
     id="namedview17"
     showgrid="false"
     inkscape:zoom="7.35"
     inkscape:cx="50"
     inkscape:cy="50"
     inkscape:window-x="-8"
     inkscape:window-y="-8"
     inkscape:window-maximized="1"
     inkscape:current-layer="svg15" />
  <circle
     id="svg_2"
     cy="50"
     cx="50"
     r="48"
     fill="#ebc497" />
  <path
     id="svg_4"
     style="fill:#864800"
     d="M 46.630859 7.5351562 C 41.432121 7.5491767 36.371625 8.8458609 31.839844 11.568359 C 30.958844 12.097359 30.136797 12.6895 29.341797 13.3125 C 26.982797 13.9725 24.694203 14.922703 22.533203 16.220703 C 20.947203 17.172703 19.522547 18.301625 18.185547 19.515625 C 18.749547 21.813625 19.000016 24.439438 18.291016 26.898438 C 18.291016 26.898438 23.768531 32.895531 20.269531 38.769531 C 20.269531 38.769531 24.411234 46.441141 19.115234 50.494141 C 19.115234 50.494141 19.866391 56.429078 14.150391 57.830078 C 14.150391 57.830078 12.848203 59.240562 10.408203 59.726562 C 11.565203 63.174563 13.091125 66.593344 15.078125 69.902344 C 24.187125 85.065344 39.516734 93.497266 53.427734 92.447266 C 40.859734 91.543266 27.831469 83.388344 19.730469 69.902344 C 17.743469 66.593344 16.2205 63.174563 15.0625 59.726562 C 17.5025 59.240564 18.804687 57.830078 18.804688 57.830078 C 19.447688 57.673078 19.996328 57.449359 20.486328 57.193359 C 21.529328 59.922359 22.805766 62.621 24.384766 65.25 C 36.378766 85.214 59.162344 93.554047 75.277344 83.873047 C 91.389344 74.194047 94.727422 50.158359 82.732422 30.193359 C 74.110297 15.842078 59.916524 7.4993261 46.630859 7.5351562 z M 27.708984 15.949219 C 28.091984 17.971219 28.197703 20.162141 27.595703 22.244141 C 27.595703 22.244141 33.073219 28.241234 29.574219 34.115234 C 29.575219 34.116234 33.715922 41.789797 28.419922 45.841797 C 28.419922 45.841797 29.1545 51.690531 23.5625 53.144531 C 23.9155 51.695531 23.767578 50.494141 23.767578 50.494141 C 29.063578 46.442141 24.921875 38.769531 24.921875 38.769531 C 28.420875 32.895531 22.943359 26.896484 22.943359 26.896484 C 23.653359 24.438484 23.404844 21.811672 22.839844 19.513672 C 24.176844 18.299672 25.6015 17.172703 27.1875 16.220703 C 27.3575 16.118703 27.537984 16.046219 27.708984 15.949219 z M 52.5 25 C 53.331 25 54 25.892 54 27 L 54 30.021484 C 55.72222 29.636028 57.525783 29.419922 59.433594 29.419922 C 59.632344 29.419922 59.806064 29.434713 60 29.4375 L 60 27 C 60 25.892 60.669 25 61.5 25 C 62.331 25 63 25.892 63 27 L 63 29.617188 C 63.299722 29.649922 63.621997 29.669247 63.90625 29.710938 C 65.247175 29.887374 66.482128 30.125838 67.611328 30.425781 C 68.793459 30.761012 69.861691 31.141003 70.814453 31.564453 C 71.784859 31.970259 72.632075 32.348297 73.355469 32.701172 L 73.355469 42.255859 L 72.191406 42.255859 C 71.697381 41.832409 71.071181 41.330291 70.3125 40.748047 C 69.571463 40.165803 68.724247 39.591944 67.771484 39.027344 C 66.801078 38.462744 65.750294 37.985819 64.621094 37.597656 C 63.491894 37.209494 62.284087 37.015625 60.996094 37.015625 C 59.56695 37.015625 58.207916 37.244388 56.919922 37.703125 C 55.631928 38.144219 54.441569 38.886753 53.347656 39.927734 C 52.306675 40.933428 51.459459 42.265316 50.806641 43.923828 C 50.171466 45.582341 49.853516 47.592769 49.853516 49.957031 C 49.853516 52.427156 50.198613 54.491878 50.886719 56.150391 C 51.592469 57.808903 52.474578 59.115597 53.533203 60.068359 C 54.609472 61.038766 55.807578 61.734753 57.130859 62.158203 C 58.454141 62.564009 59.760834 62.767578 61.048828 62.767578 C 62.283891 62.767578 63.501397 62.581454 64.701172 62.210938 C 65.918591 61.840418 67.039163 61.3383 68.0625 60.703125 C 68.927044 60.191456 69.729666 59.644744 70.470703 59.0625 C 71.211741 58.480256 71.820494 57.976184 72.296875 57.552734 L 73.355469 57.552734 L 73.355469 66.974609 C 72.367419 67.415703 71.423269 67.830588 70.523438 68.21875 C 69.623604 68.606912 68.679456 68.942309 67.691406 69.224609 C 66.403413 69.595128 65.195606 69.878184 64.066406 70.072266 C 63.747553 70.127068 63.386408 70.171622 63 70.210938 L 63 73 C 63 74.108 62.331 75 61.5 75 C 60.669 75 60 74.108 60 73 L 60 70.347656 C 59.789642 70.35008 59.629142 70.363281 59.408203 70.363281 C 57.509801 70.363281 55.713104 70.162062 54 69.798828 L 54 73 C 54 74.108 53.331 75 52.5 75 C 51.669 75 51 74.108 51 73 L 51 69 C 51 68.983935 51.003627 68.969098 51.003906 68.953125 C 48.655876 68.090468 46.616806 66.845859 44.904297 65.201172 C 43.122278 63.489728 41.73805 61.355219 40.75 58.796875 C 39.779594 56.238531 39.292969 53.283953 39.292969 49.931641 C 39.292969 46.808697 39.762147 43.976247 40.697266 41.435547 C 41.632384 38.894847 42.989466 36.715744 44.771484 34.898438 C 46.45398 33.181252 48.533116 31.852193 51 30.902344 L 51 27 C 51 25.892 51.669 25 52.5 25 z " />
</svg>
